<svg height="512" viewBox="0 0 58 53" width="512" xmlns="http://www.w3.org/2000/svg"><g id="Page-1" fill="none" fill-rule="evenodd"><g id="038---Spilling-Coffee" fill-rule="nonzero" transform="translate(0 -2)"><path id="Shape" d="m7.14 28.03c-1.30655027-.6968115-2.50283243-1.5830712-3.55-2.63-1.61903778-1.5688981-2.77168124-3.555737-3.33-5.74-.77931891-3.2223789.2282389-6.6152535 2.64-8.89 1.42806353-1.55795094 3.52337673-2.32598389 5.62-2.06 2.61.35 4.87 2.29 6.45 4.13l-2.95 4.28c-.758976-1.1975068-1.7774094-2.2091052-2.98-2.96-.61011924-.3422914-1.33659967-.4103913-1.99970344-.1874513-.66310377.2229401-1.20088675.7160941-1.48029656 1.3574513-1.62 3.06.69 6.22 3.25 7.88z" fill="#c03a2b"/><path id="Shape" d="m46.39 31.75c-2.4 1.83-5.84 2.93-10.23 2.7-3.19-.17-5.02-.89-6.07-1.98-2.88-2.97.1-8.61-2.96-12.71-2.3736274-3.0184425-6.1166358-4.6263546-9.94-4.27-.87-2.13-1.07-3.82-.47-4.81 0-.01 0-.01.01-.02v-.01c.0755196-.1152597.1626404-.2224853.26-.32 2.54-2.54 12.19 3 21.57 12.37 2.8347013 2.8146944 5.4521849 5.8400107 7.83 9.05z" fill="#bdc3c7"/><path id="Shape" d="m50.58 44.54c-3.95 3.4-23.62 18.89-38.19 4.32-6.55-6.54-7.02-14.12-5.25-20.83.43601956-1.6459633.99423559-3.2571018 1.67-4.82.91705676-2.1070056 1.9900348-4.1426555 3.21-6.09 1.04-1.68 2.08-3.14 2.95-4.28.72-.94 1.32-1.67 1.75-2.16-.6.99-.4 2.68.47 4.81 1.74 4.29 6.17 10.4 12.17 16.4.22.22.44.43.66.65 8.78 8.6 17.65 13.76 20.56 12z" fill="#e64c3c"/><path id="Shape" d="m46.39 31.75c-2.3778151-3.2099893-4.9952987-6.2353056-7.83-9.05-9.38-9.37-19.03-14.91-21.57-12.37-.0973596.0975147-.1844804.2047403-.26.32v.01c-.01.01-.01.01-.01.02-.6.99-.4 2.68.47 4.81 1.74 4.29 6.17 10.4 12.17 16.4.22.22.44.43.66.65 8.78 8.6 17.65 13.76 20.56 12z" fill="#bdc3c7"/><ellipse id="Oval" cx="42.091" cy="6.438" fill="#a56a43" rx="3" ry="5" transform="matrix(.707 -.707 .707 .707 7.776 31.649)"/><path id="Shape" d="m25.11 44.64c-2.79 2.8-6.63 3.59-9.09 2.04 1.76-1.85.42-3.25 2.27-5.09 1.88-1.89 3.29-.48 5.18-2.36 1.84-1.85.5-3.24 2.27-5.09.28181.1814624.5433103.3926743.78.63 2.33 2.34 1.71 6.76-1.41 9.87z" fill="#f29c1f"/><path id="Shape" d="m25.74 34.14c-1.77 1.85-.43 3.24-2.27 5.09-1.89 1.88-3.3.47-5.18 2.36-1.85 1.84-.51 3.24-2.27 5.09-.28181-.1814624-.5433103-.3926743-.78-.63-2.34-2.34-1.71-6.76 1.41-9.87 2.79-2.8 6.63-3.59 9.09-2.04z" fill="#e57e25"/><path id="Shape" d="m30.09 32.47-.07.07c-.22-.22-.44-.43-.66-.65-6-6-10.43-12.11-12.17-16.4 3.8233642-.3563546 7.5663726 1.2515575 9.94 4.27 3.06 4.1.08 9.74 2.96 12.71z" fill="#a56a43"/><path id="Shape" d="m46.39 31.75c-2.3778151-3.2099893-4.9952987-6.2353056-7.83-9.05-9.38-9.37-19.03-14.91-21.57-12.37-.0973596.0975147-.1844804.2047403-.26.32v.01c-.01.01-.01.01-.01.02-.6.99-.4 2.68.47 4.81 1.74 4.29 6.17 10.4 12.17 16.4.22.22.44.43.66.65 8.78 8.6 17.65 13.76 20.56 12 1.029-.745-.47-3.29-.47-3.29zm-14.97-.64-.65-.63c-.71-.71-1.39-1.42-2.07-2.14-4.25-4.57-7.67-9.26-9.32-12.81-.12-.27-.24-.53-.34-.79-.4485494-.8961091-.6716689-1.8881325-.65-2.89l.14-.12c.0859843-.0136771.1729354-.0203657.26-.02 2.88 0 10.29 4.35 18.36 12.41 2.6837163 2.6696824 5.1702411 5.5305228 7.44 8.56l.06.17 3.22 9.83c-2.76-.75-7.53-3.6-12.94-8.33-1.15-.99-2.32-2.08-3.51-3.24z" fill="#ecf0f1"/><path id="Shape" d="m57.97 27.98c-.1386634 4.1880477-1.2953333 8.2792955-3.37 11.92-1.0464916 1.7477892-2.9017166 2.8522061-4.937 2.939h-.035c-.6498173.0380272-1.3014262-.0326088-1.928-.209-1.217271-.3938691-2.3902538-.9133329-3.5-1.55-.73-.41-1.51-.88-2.34-1.42-2.4322701-1.6044462-4.7480451-3.3788712-6.93-5.31.39.04.8.08 1.23.1 4.39.23 7.83-.87 10.23-2.7 4.0860196-2.951252 5.1874498-8.5633007 2.52-12.84-4.17-6.99 9.88-7.09 9.06 9.07z" fill="#a56a43"/><path id="Shape" d="m50.77 36.64c-1.7251093 2.0725722-4.0035706 3.6123542-6.57 4.44-.73-.41-1.51-.88-2.34-1.42 2.874816-.5518151 5.4749751-2.0688685 7.37-4.3.3534623-.4252592.9847407-.4834622 1.41-.1299999.4252592.3534622.4834622.9847406.13 1.4099999z" fill="#805333"/></g></g></svg>